PathFileType	4	(X/Y/Z)	C:/Users/beibeiliu/ov580/test_trc/User1\sequence.25_training_dense_left.trc
DataRate	CameraRate	NumFrames	NumMarkers	Units	OrigDataRate	OrigDataStartFrame	OrigNumFrames
120	120	14	19	mm	120	1	242
Frame#	Time	ThumbCMC			ThumbMCP			ThumbIP			ThumbTip			IndexMCP			IndexPIP			IndexTip			MiddleMCP			MiddlePIP			MiddleTip			RingMCP			RingPIP			RingTip			PinkyMCP			PinkyPIP			PinkyTip			BackHand1			BackHand2			BackHand3	
		X0	Y0	Z0	X1	Y1	Z1	X2	Y2	Z2	X3	Y3	Z3	X4	Y4	Z4	X5	Y5	Z5	X6	Y6	Z6	X7	Y7	Z7	X8	Y8	Z8	X9	Y9	Z9	X10	Y10	Z10	X11	Y11	Z11	X12	Y12	Z12	X13	Y13	Z13	X14	Y14	Z14	X15	Y15	Z15	X16	Y16	Z16	X17	Y17	Z17	X18	Y18	Z18	
0	0	-152.92	8.77256	36.9084	-130.86	-6.05543	27.5177	-106.601	-12.4343	14.9221	-85.9302	-20.5329	5.52603	-156.801	5.34827	-51.1947	-150.913	2.77784	-75.8365	-147.86	1.90796	-106.878	-180.548	12.2871	-64.7069	-178.956	10.5171	-93.0515	-180.061	6.23939	-123.464	-203.822	11.274	-62.8161	-204.267	10.6019	-86.8662	-206.199	4.14133	-112.965	-237.839	3.42643	-44.9827	-243.767	1.28175	-60.3137	-247.444	4.66364	-86.1532	-208.55	25.7742	-11.2438	-214.88	36.9561	25.2726	-177.957	28.3233	10.3021	
1	0.00833333	-154.774	8.19162	34.7484	-130.241	-4.87231	27.0293	-111.281	-13.3129	12.5716	-87.2292	-21.0474	6.0656	-157.679	6.40662	-52.3208	-152.243	4.93144	-79.7839	-149.952	2.77487	-107.735	-180.393	13.0468	-66.7968	-178.908	11.3606	-90.3221	-180.884	6.68732	-123.438	-208.986	13.0052	-61.0927	-203.879	10.3708	-87.0072	-205.55	4.41966	-117.776	-235.339	3.77432	-41.2315	-246.385	1.6559	-64.9421	-250.419	6.29919	-84.1451	-212.495	25.8349	-7.55999	-214.336	37.467	22.9273	-177.999	27.3539	9.2164	
2	0.0166667	-155.453	7.69008	37.0793	-132.831	-5.31046	29.1626	-106.435	-13.7132	12.4046	-91.0837	-20.8142	8.94389	-152.003	5.41671	-54.434	-152.485	4.5205	-77.1376	-146.327	2.55395	-102.526	-182.831	14.0331	-63.2086	-178.983	11.2332	-91.1304	-177.736	6.65924	-121.047	-203.99	12.4133	-58.1182	-203.871	9.83192	-90.9733	-206.436	4.45475	-116.356	-236.897	4.8701	-42.0578	-245.912	1.59414	-62.2496	-249.193	3.83034	-84.4613	-212.767	26.4931	-7.82069	-213.874	35.4922	23.5704	-179.953	27.5652	12.2461	
3	0.025	-150.73	7.5271	33.8436	-131.585	-5.83263	26.5113	-108.413	-13.3838	13.627	-90.4869	-19.9584	11.4155	-154.511	5.57968	-53.8393	-147.317	4.74616	-79.1956	-151.378	2.74191	-101.995	-180.364	13.3946	-61.1941	-178.734	11.1139	-92.7951	-179.989	6.59863	-121.595	-203.213	12.5461	-60.1716	-204.711	10.5188	-89.191	-204.364	5.22525	-110.84	-231.982	3.76738	-40.8777	-241.085	2.35726	-62.38	-248.882	6.422	-83.4804	-210.469	24.6276	-9.66433	-216.959	36.0949	22.3165	-177.565	27.2272	10.0278	
4	0.0333333	-155.756	7.72929	36.6635	-129.316	-5.53103	26.141	-106.498	-12.5437	16.9094	-87.0455	-19.3932	12.2498	-151.973	5.88058	-49.7732	-149.329	4.89023	-74.0594	-146.167	3.29099	-100.136	-176.988	14.2473	-66.2191	-175.158	10.1159	-94.2552	-176.518	7.12634	-119.267	-207.928	12.6861	-59.3927	-203.092	10.9031	-90.2319	-206.046	4.10007	-115.166	-237.743	4.06808	-41.9691	-239.618	1.98045	-60.9896	-248.926	6.53834	-83.5778	-210.828	26.83	-8.97668	-210.802	36.0626	22.2793	-178.259	26.5796	10.3516	
5	0.0416667	-153.819	7.13709	33.3858	-130.332	-5.28924	26.9475	-106.617	-13.2474	12.8207	-85.9742	-19.7318	11.9456	-151.251	4.84584	-48.1612	-151.29	3.87744	-78.1072	-146.682	2.26809	-99.7524	-180.882	13.0769	-65.2391	-175.545	10.2917	-90.966	-178.772	6.51095	-120.125	-208.186	12.7582	-59.0504	-206.041	10.6309	-89.7477	-207.495	4.28105	-111.848	-235.199	4.81412	-41.7684	-239.411	1.83983	-58.609	-249.191	3.77392	-82.2758	-207.833	26.4747	-4.5178	-213.241	35.8768	24.4519	-174.977	26.0904	12.7266	
6	0.05	-151.467	7.45204	34.3504	-127.61	-5.32823	27.4837	-109.569	-14.6154	16.4465	-88.6526	-20.4927	11.0038	-154.551	4.87047	-53.9349	-148.738	2.42505	-73.64	-149.132	1.94998	-100.559	-181.736	12.5492	-65.9748	-175.64	9.43182	-88.5973	-176.24	6.9014	-121.49	-203.706	11.7702	-56.4715	-204.944	10.0207	-86.6812	-203.263	3.8471	-115.377	-237.745	3.72698	-41.4031	-243.815	0.600833	-63.053	-249.848	3.83824	-83.5006	-207.328	23.9434	-3.74586	-214.948	36.0633	25.8889	-178.098	28.1043	13.1878	
7	0.0583333	-152.585	8.64464	38.3533	-129.414	-5.5222	29.775	-104.183	-12.9337	15.0202	-85.7256	-19.7018	13.3642	-153.381	5.73686	-52.8883	-147.335	2.88392	-78.7027	-149.981	3.00318	-101.263	-179.835	12.6783	-65.795	-176.647	9.82012	-89.9686	-172.906	6.33412	-124.091	-203.187	12.3271	-58.2208	-207.239	10.2281	-87.6949	-206.246	3.92402	-112.148	-237.799	4.91985	-44.1784	-241.857	1.64111	-60.093	-250.311	3.60435	-86.6939	-212.154	25.7311	-4.96184	-214.111	36.0235	23.8223	-174.524	28.5336	12.3534	
8	0.0666667	-152.048	6.63731	35.9602	-128.822	-6.92839	27.1416	-108.381	-14.6159	14.7237	-84.9288	-21.2362	8.91262	-153.297	5.60051	-50.1374	-148.175	3.87956	-79.3268	-143.98	2.05272	-104.955	-179.118	13.2221	-62.0013	-178.453	10.5908	-93.5366	-175.565	6.67007	-121.584	-204.654	12.8377	-59.8079	-206.222	10.7261	-86.9844	-202.627	3.08796	-114.355	-236.715	5.10474	-39.4377	-241.219	1.84883	-58.8145	-250.189	4.45466	-84.0378	-208.952	24.351	-5.89306	-214.845	35.5611	27.039	-176.57	26.1851	13.6433	
9	0.075	-154.882	6.45099	37.6838	-125.892	-6.59584	30.6402	-105.499	-13.6601	19.8426	-89.0393	-23.3308	11.9217	-152.286	4.40337	-50.36	-151.486	3.67618	-74.2307	-148.216	2.80556	-101.809	-177.558	12.344	-63.4755	-174.52	9.68222	-90.1606	-175.036	5.27023	-119.317	-201.515	11.9532	-59.9032	-207.25	10.8995	-84.8047	-204.702	2.41304	-111.958	-232.24	3.69244	-39.1234	-243.255	0.534905	-60.5328	-248.216	2.62118	-83.0777	-211.907	24.6148	-5.16496	-214.133	34.9003	23.5872	-176.004	25.8553	15.1526	
10	0.0833333	-152.342	6.86754	36.7868	-128.635	-6.68062	30.6429	-106.263	-14.9478	18.1798	-85.4177	-21.9273	13.2283	-154.595	4.01193	-51.1873	-148.565	2.51251	-74.2262	-148.263	2.10569	-103.453	-178.798	12.1158	-64.686	-175.711	8.62614	-88.7258	-178.848	5.01318	-118.987	-208.205	11.6624	-57.858	-206.61	10.294	-84.5547	-203.75	3.05663	-112.777	-232.526	3.33033	-39.0164	-242.296	1.18691	-59.877	-247.866	2.35608	-82.121	-211.883	24.5622	-4.32496	-213.72	33.5573	23.3658	-177.818	26.898	13.965	
11	0.0916667	-156.412	5.91114	38.9742	-127.427	-6.33325	33.7193	-105.699	-13.8598	20.8724	-89.0888	-22.3254	13.5253	-152.658	3.99164	-50.8462	-147.79	2.53967	-76.0597	-148.451	1.83526	-99.141	-178.918	12.0235	-61.2505	-177.357	9.64109	-90.561	-176.349	5.33141	-122.022	-206.631	11.3581	-55.4706	-203.099	9.33925	-83.2577	-205.599	3.97293	-109.006	-232.225	3.28639	-44.0597	-239.405	0.49297	-58.0529	-249.866	2.94762	-83.0435	-210.905	25.8465	-6.09698	-215.944	35.5805	25.0478	-174.97	24.2658	13.5448	
12	0.1	-155.362	6.42218	35.0703	-131.977	-8.55053	29.9536	-105.69	-14.6223	21.3643	-86.6286	-20.3949	16.549	-151.509	4.08601	-51.1273	-145.721	2.56571	-74.0435	-146.699	1.62732	-97.186	-176.858	11.5378	-62.4383	-176.536	8.94399	-91.399	-177.417	5.58266	-117.79	-207.733	11.969	-56.6915	-201.434	9.08162	-85.8885	-204.057	3.15269	-110.153	-235.085	3.05393	-38.3693	-241.116	0.252628	-56.6388	-248.037	2.85509	-84.2823	-207.043	22.5452	-6.03349	-213.92	34.5345	28.1922	-177.617	24.7813	15.899	
13	0.108333	-155.125	5.51164	40.5396	-127.746	-7.15239	31.9646	-105.067	-13.5753	19.6234	-86.0154	-20.9022	15.1312	-156.318	4.38051	-47.4658	-149.334	3.4418	-70.8469	-146.576	2.29918	-100.211	-178.699	12.0924	-63.2976	-175.139	8.4324	-89.7255	-175.253	4.58816	-116.189	-205.045	10.6768	-57.6159	-204.079	8.47639	-81.5294	-203.305	2.26254	-107.577	-233.032	2.35362	-42.4557	-243.404	-1.55719	-60.8843	-246.713	1.14008	-83.3536	-208.587	21.6555	-5.11947	-213.71	34.8538	26.4035	-177.87	27.0637	18.3166	
